- 
http://www.Speed.Cd 
       
http://www.Speed.Cd      fast  and The Hottest Private Tracker on the net

(((--Submit for invite!!--)))

Please Seed back to make the speed Faster!!!

------------------nfo--------------------------
-








































          
          
              
              
                    
                    
                    
                    

The.Smurfs.2011.R5.Line.Xvid.AC3-SiC

Poster:
[img]http://img7.imageshack.us/img7/9899/220pxthesmurfs2011poste.jpg[/img]

IMDB Link: 
http://www.imdb.com/title/tt0472181/

Description:
When the evil wizard Gargamel chases the tiny blue Smurfs out of their 
village, they tumble from their magical world and into ours. 

MediaInfo:
General
Complete name                    : The.Smurfs.2011.R5.Line.Xvid.AC3-SiC.avi
Format                           : AVI
Format/Info                      : Audio Video Interleave
File size                        : 1.29 GiB
Duration                         : 1h 38mn
Overall bit rate                 : 1 874 Kbps

Video
ID                               : 0
Format                           : MPEG-4 Visual
Format profile                   : Advanced Simple@L5
Format settings, BVOP            : Yes
Format settings, QPel            : No
Format settings, GMC             : No warppoints
Format settings, Matrix          : Default (H.263)
Muxing mode                      : Packed bitstream
Codec ID                         : XVID
Codec ID/Hint                    : XviD
Duration                         : 1h 38mn
Bit rate                         : 1 740 Kbps
Width                            : 720 pixels
Height                           : 400 pixels
Display aspect ratio             : 16:9
Frame rate                       : 25.000 fps
Resolution                       : 8 bits
Colorimetry                      : 4:2:0
Scan type                        : Progressive
Bits/(Pixel*Frame)               : 0.242
Stream size                      : 1.20 GiB (93%)
Writing library                  : XviD 64

Audio
ID                               : 1
Format                           : MPEG Audio
Format version                   : Version 1
Format profile                   : Layer 3
Mode                             : Joint stereo
Format_Settings_ModeExtension    : MS Stereo
Codec ID                         : 55
Codec ID/Hint                    : MP3
Duration                         : 1h 38mn
Bit rate mode                    : Constant
Bit rate                         : 128 Kbps
Channel(s)                       : 2 channels
Sampling rate                    : 44.1 KHz
Stream size                      : 90.3 MiB (7%)
Alignment                        : Aligned on interleaves
Interleave, duration             : 160 ms (4.00 video frames)
Interleave, preload duration     : 208 ms
Title                            : 2ch English
Writing library                  : LAME3.98r
Encoding settings                : -m j -V 4 -q 2 -lowpass 17 -b 128

Screenshots:
[img]http://img89.imageshack.us/img89/1768/vlcsnap2011092101h56m00.png[/img]
[img]http://img594.imageshack.us/img594/9237/thesmurfs2011r5linexvid.png[/img]
[img]http://img30.imageshack.us/img30/9237/thesmurfs2011r5linexvid.png[/img]
[img]http://img52.imageshack.us/img52/9237/thesmurfs2011r5linexvid.png[/img]
[img]http://img41.imageshack.us/img41/9237/thesmurfs2011r5linexvid.png[/img]

Note :   N/A 

Source : Russian DVDR DVD9 Thanks!!!
Audio Source : LittlebirD Thanks!!!
Enjoy!

Respects to CaptainHomey, Cyanide, CM8, Rx, THC, ELEKTRI4KA, 
Killerhz, PA, YeFsTe, BoxSlots, MrRep and everyone in the struggle...